<mxfile host="65bd71144e" scale="1" border="10">
    <diagram id="-0bvjkYd9vsQYAiFDbZ4" name="Page-1">
        <mxGraphModel dx="4824" dy="2564" grid="1" gridSize="10" guides="1" tooltips="1" connect="1" arrows="1" fold="1" page="1" pageScale="1" pageWidth="1169" pageHeight="827" background="#ffffff" math="0" shadow="0">
            <root>
                <mxCell id="0"/>
                <mxCell id="1" parent="0"/>
                <mxCell id="2" style="edgeStyle=none;shape=connector;rounded=1;jumpStyle=arc;html=1;labelBackgroundColor=default;strokeColor=default;fontFamily=Helvetica;fontSize=11;fontColor=default;endArrow=none;endFill=0;exitX=1.001;exitY=0.449;exitDx=0;exitDy=0;exitPerimeter=0;" parent="1" source="42" edge="1">
                    <mxGeometry relative="1" as="geometry">
                        <Array as="points"/>
                        <mxPoint x="-3230.0000000000005" y="-1451.47" as="sourcePoint"/>
                        <mxPoint x="-3229.547995229893" y="-1516.3060023850537" as="targetPoint"/>
                    </mxGeometry>
                </mxCell>
                <mxCell id="4" style="edgeStyle=none;shape=connector;rounded=1;jumpStyle=arc;html=1;labelBackgroundColor=default;strokeColor=#0000CC;fontFamily=Helvetica;fontSize=11;fontColor=default;endArrow=none;endFill=0;strokeWidth=2;entryX=0.5;entryY=0;entryDx=0;entryDy=0;" parent="1" target="16" edge="1">
                    <mxGeometry relative="1" as="geometry">
                        <Array as="points">
                            <mxPoint x="-3265.37" y="-1506"/>
                            <mxPoint x="-3024.9" y="-1506"/>
                        </Array>
                        <mxPoint x="-3340" y="-1506.47" as="sourcePoint"/>
                        <mxPoint x="-3264.9" y="-1422" as="targetPoint"/>
                    </mxGeometry>
                </mxCell>
                <mxCell id="5" value="(0, N)" style="edgeLabel;html=1;align=center;verticalAlign=middle;resizable=0;points=[];strokeColor=#0000CC;fontColor=#0000CC;" parent="4" vertex="1" connectable="0">
                    <mxGeometry x="0.8608" y="1" relative="1" as="geometry">
                        <mxPoint x="-31" y="17" as="offset"/>
                    </mxGeometry>
                </mxCell>
                <mxCell id="16" value="&lt;font style=&quot;font-size: 11px;&quot;&gt;storico&lt;/font&gt;" style="rhombus;whiteSpace=wrap;html=1;strokeColor=#0000CC;fontColor=#0000CC;strokeWidth=2;" parent="1" vertex="1">
                    <mxGeometry x="-3064.9" y="-1431.9199999999998" width="80" height="40" as="geometry"/>
                </mxCell>
                <mxCell id="17" value="(1, 1)" style="edgeStyle=none;jumpStyle=arc;html=1;exitX=0.5;exitY=1;exitDx=0;exitDy=0;startArrow=none;startFill=0;endArrow=none;endFill=0;strokeColor=#0000CC;fontColor=#0000CC;endSize=6;strokeWidth=2;" parent="1" source="16" edge="1">
                    <mxGeometry x="-0.8063" y="-30" relative="1" as="geometry">
                        <mxPoint as="offset"/>
                        <mxPoint x="-2627.3300000000004" y="-1331.1499999999996" as="sourcePoint"/>
                        <mxPoint x="-3024.9" y="-1311.92" as="targetPoint"/>
                    </mxGeometry>
                </mxCell>
                <mxCell id="18" value="RINNOVO" style="whiteSpace=wrap;html=1;strokeColor=#0000CC;fontColor=#0000CC;strokeWidth=2;" parent="1" vertex="1">
                    <mxGeometry x="-3064.02" y="-1311.3899999999999" width="80" height="40" as="geometry"/>
                </mxCell>
                <mxCell id="19" style="edgeStyle=none;shape=connector;rounded=1;fillStyle=auto;html=1;labelBackgroundColor=default;strokeColor=#0000CC;strokeWidth=1;fontFamily=Helvetica;fontSize=11;fontColor=#0000CC;endArrow=none;endFill=0;startSize=6;endSize=6;fillColor=#000000;startArrow=oval;startFill=0;" parent="1" target="18" edge="1">
                    <mxGeometry relative="1" as="geometry">
                        <mxPoint x="-3005.02" y="-1291.655" as="targetPoint"/>
                        <mxPoint x="-2965.02" y="-1291.9199999999998" as="sourcePoint"/>
                    </mxGeometry>
                </mxCell>
                <mxCell id="20" value="scadenza" style="edgeLabel;html=1;align=center;verticalAlign=middle;resizable=0;points=[];fontSize=11;fontFamily=Helvetica;fontColor=#0000CC;strokeColor=#0000CC;" parent="19" vertex="1" connectable="0">
                    <mxGeometry x="-0.2572" y="1" relative="1" as="geometry">
                        <mxPoint x="41" y="-1" as="offset"/>
                    </mxGeometry>
                </mxCell>
                <mxCell id="21" style="edgeStyle=none;shape=connector;rounded=1;fillStyle=auto;html=1;labelBackgroundColor=default;strokeColor=#0000CC;strokeWidth=1;fontFamily=Helvetica;fontSize=11;fontColor=#0000CC;endArrow=none;endFill=0;startSize=6;endSize=6;fillColor=#000000;startArrow=oval;startFill=1;" parent="1" edge="1">
                    <mxGeometry relative="1" as="geometry">
                        <mxPoint x="-3044.9" y="-1321.92" as="targetPoint"/>
                        <mxPoint x="-2975.02" y="-1281.9199999999998" as="sourcePoint"/>
                        <Array as="points">
                            <mxPoint x="-2975.02" y="-1321.9199999999998"/>
                        </Array>
                    </mxGeometry>
                </mxCell>
                <mxCell id="22" style="edgeStyle=none;shape=connector;rounded=1;fillStyle=auto;html=1;labelBackgroundColor=default;strokeColor=#0000CC;strokeWidth=1;fontFamily=Helvetica;fontSize=11;fontColor=#0000CC;endArrow=none;endFill=0;startSize=6;endSize=6;fillColor=#000000;startArrow=oval;startFill=0;" parent="1" target="18" edge="1">
                    <mxGeometry relative="1" as="geometry">
                        <mxPoint x="-2974.02" y="-1281.7493220338981" as="targetPoint"/>
                        <mxPoint x="-3064.02" y="-1251.9199999999998" as="sourcePoint"/>
                    </mxGeometry>
                </mxCell>
                <mxCell id="23" value="pagato" style="edgeLabel;html=1;align=center;verticalAlign=middle;resizable=0;points=[];fontSize=11;fontFamily=Helvetica;fontColor=#0000CC;strokeColor=#0000CC;" parent="22" vertex="1" connectable="0">
                    <mxGeometry x="-0.2572" y="1" relative="1" as="geometry">
                        <mxPoint x="1" y="19" as="offset"/>
                    </mxGeometry>
                </mxCell>
                <mxCell id="39" value="(1, 1)" style="edgeStyle=elbowEdgeStyle;elbow=vertical;html=1;exitX=0.5;exitY=1;exitDx=0;exitDy=0;entryX=0.5;entryY=0;entryDx=0;entryDy=0;endArrow=none;endFill=0;rounded=0;jumpStyle=arc;startArrow=none;" parent="1" source="40" target="42" edge="1">
                    <mxGeometry x="-0.4926" y="-19" relative="1" as="geometry">
                        <mxPoint as="offset"/>
                        <mxPoint x="-3389.39" y="-1532.69" as="targetPoint"/>
                        <Array as="points">
                            <mxPoint x="-3388.6700000000005" y="-1542"/>
                            <mxPoint x="-3388.6700000000005" y="-1542"/>
                            <mxPoint x="-3388.6700000000005" y="-1542"/>
                        </Array>
                    </mxGeometry>
                </mxCell>
                <mxCell id="40" value="partizione" style="rhombus;whiteSpace=wrap;html=1;" parent="1" vertex="1">
                    <mxGeometry x="-3430.0000000000005" y="-1612" width="80" height="40" as="geometry"/>
                </mxCell>
                <mxCell id="41" value="" style="endArrow=oval;html=1;fillStyle=auto;strokeWidth=1;startSize=6;endSize=6;fillColor=#000000;startArrow=none;startFill=0;endFill=1;" parent="1" edge="1">
                    <mxGeometry width="50" height="50" relative="1" as="geometry">
                        <mxPoint x="-3372.53" y="-1545.79" as="sourcePoint"/>
                        <mxPoint x="-3402.53" y="-1545.79" as="targetPoint"/>
                    </mxGeometry>
                </mxCell>
                <mxCell id="42" value="REGISTRATO" style="whiteSpace=wrap;html=1;" parent="1" vertex="1">
                    <mxGeometry x="-3440.0000000000005" y="-1534.56" width="100" height="40" as="geometry"/>
                </mxCell>
                <mxCell id="64" value="(0, N)" style="edgeLabel;html=1;align=center;verticalAlign=middle;resizable=0;points=[];strokeColor=#0000CC;fontColor=#0000CC;" parent="1" vertex="1" connectable="0">
                    <mxGeometry x="-3304.9" y="-1442.0025144359258" as="geometry"/>
                </mxCell>
                <mxCell id="65" value="&lt;font style=&quot;font-size: 11px;&quot;&gt;transazione&lt;/font&gt;" style="rhombus;whiteSpace=wrap;html=1;strokeColor=#0000CC;fontColor=#0000CC;strokeWidth=2;" parent="1" vertex="1">
                    <mxGeometry x="-3314.9" y="-1431.8899999999999" width="80" height="40" as="geometry"/>
                </mxCell>
                <mxCell id="66" value="(1, 1)" style="edgeStyle=none;jumpStyle=arc;html=1;exitX=0.5;exitY=1;exitDx=0;exitDy=0;startArrow=none;startFill=0;endArrow=none;endFill=0;strokeColor=#0000CC;fontColor=#0000CC;endSize=6;strokeWidth=2;" parent="1" source="65" edge="1">
                    <mxGeometry x="-0.8063" y="-30" relative="1" as="geometry">
                        <mxPoint as="offset"/>
                        <mxPoint x="-2877.3300000000004" y="-1331.1199999999997" as="sourcePoint"/>
                        <mxPoint x="-3274.9" y="-1311.89" as="targetPoint"/>
                    </mxGeometry>
                </mxCell>
                <mxCell id="67" value="PAGAMENTO" style="whiteSpace=wrap;html=1;strokeColor=#0000CC;fontColor=#0000CC;strokeWidth=2;" parent="1" vertex="1">
                    <mxGeometry x="-3314.02" y="-1311.36" width="80" height="40" as="geometry"/>
                </mxCell>
                <mxCell id="68" style="edgeStyle=none;shape=connector;rounded=1;fillStyle=auto;html=1;labelBackgroundColor=default;strokeColor=#0000CC;strokeWidth=1;fontFamily=Helvetica;fontSize=11;fontColor=#0000CC;endArrow=none;endFill=0;startSize=6;endSize=6;fillColor=#000000;startArrow=oval;startFill=0;" parent="1" target="67" edge="1">
                    <mxGeometry relative="1" as="geometry">
                        <mxPoint x="-3255.02" y="-1291.625" as="targetPoint"/>
                        <mxPoint x="-3314.9" y="-1332" as="sourcePoint"/>
                    </mxGeometry>
                </mxCell>
                <mxCell id="69" value="timestamp" style="edgeLabel;html=1;align=center;verticalAlign=middle;resizable=0;points=[];fontSize=11;fontFamily=Helvetica;fontColor=#0000CC;strokeColor=#0000CC;" parent="68" vertex="1" connectable="0">
                    <mxGeometry x="-0.2572" y="1" relative="1" as="geometry">
                        <mxPoint x="-22" y="-19" as="offset"/>
                    </mxGeometry>
                </mxCell>
                <mxCell id="70" style="edgeStyle=none;shape=connector;rounded=1;fillStyle=auto;html=1;labelBackgroundColor=default;strokeColor=#0000CC;strokeWidth=1;fontFamily=Helvetica;fontSize=11;fontColor=#0000CC;endArrow=none;endFill=0;startSize=6;endSize=6;fillColor=#000000;startArrow=oval;startFill=1;" parent="1" edge="1">
                    <mxGeometry relative="1" as="geometry">
                        <mxPoint x="-3314.9" y="-1322" as="targetPoint"/>
                        <mxPoint x="-3224.9" y="-1282" as="sourcePoint"/>
                        <Array as="points">
                            <mxPoint x="-3225.02" y="-1321.8899999999999"/>
                        </Array>
                    </mxGeometry>
                </mxCell>
                <mxCell id="75" style="edgeStyle=none;shape=connector;rounded=1;jumpStyle=arc;html=1;labelBackgroundColor=default;strokeColor=#0000CC;fontFamily=Helvetica;fontSize=11;fontColor=default;endArrow=none;endFill=0;strokeWidth=2;entryX=0.5;entryY=0;entryDx=0;entryDy=0;exitX=0.997;exitY=0.95;exitDx=0;exitDy=0;exitPerimeter=0;" parent="1" source="42" target="65" edge="1">
                    <mxGeometry relative="1" as="geometry">
                        <Array as="points">
                            <mxPoint x="-3330.27" y="-1495.92"/>
                            <mxPoint x="-3274.9" y="-1496"/>
                        </Array>
                        <mxPoint x="-3334.9" y="-1502" as="sourcePoint"/>
                        <mxPoint x="-3229.8" y="-1431.92" as="targetPoint"/>
                    </mxGeometry>
                </mxCell>
                <mxCell id="77" value="&lt;font style=&quot;font-size: 11px;&quot;&gt;hosting&lt;/font&gt;" style="rhombus;whiteSpace=wrap;html=1;strokeColor=#0000CC;fontColor=#0000CC;strokeWidth=2;" parent="1" vertex="1">
                    <mxGeometry x="-3194.9" y="-1311.3899999999999" width="80" height="40" as="geometry"/>
                </mxCell>
                <mxCell id="79" value="" style="endArrow=none;html=1;fontSize=11;exitX=1;exitY=0.5;exitDx=0;exitDy=0;entryX=0;entryY=0.5;entryDx=0;entryDy=0;strokeColor=#0000CC;strokeWidth=2;" parent="1" source="67" target="77" edge="1">
                    <mxGeometry width="50" height="50" relative="1" as="geometry">
                        <mxPoint x="-3194.9" y="-1302" as="sourcePoint"/>
                        <mxPoint x="-3144.9" y="-1352" as="targetPoint"/>
                    </mxGeometry>
                </mxCell>
                <mxCell id="80" value="" style="endArrow=none;html=1;fontSize=11;exitX=1;exitY=0.5;exitDx=0;exitDy=0;strokeColor=#0000CC;strokeWidth=2;" parent="1" edge="1">
                    <mxGeometry width="50" height="50" relative="1" as="geometry">
                        <mxPoint x="-3114.9" y="-1291.53" as="sourcePoint"/>
                        <mxPoint x="-3064.9" y="-1292" as="targetPoint"/>
                    </mxGeometry>
                </mxCell>
                <mxCell id="81" value="&lt;span style=&quot;color: rgb(0, 0, 204); font-family: Helvetica; font-size: 11px; font-style: normal; font-variant-ligatures: normal; font-variant-caps: normal; font-weight: 400; letter-spacing: normal; orphans: 2; text-align: center; text-indent: 0px; text-transform: none; widows: 2; word-spacing: 0px; -webkit-text-stroke-width: 0px; background-color: rgb(255, 255, 255); text-decoration-thickness: initial; text-decoration-style: initial; text-decoration-color: initial; float: none; display: inline !important;&quot;&gt;(1, 1)&lt;/span&gt;" style="text;whiteSpace=wrap;html=1;fontSize=11;" parent="1" vertex="1">
                    <mxGeometry x="-3214.9" y="-1322" width="30" height="20" as="geometry"/>
                </mxCell>
                <mxCell id="82" value="&lt;span style=&quot;color: rgb(0, 0, 204); font-family: Helvetica; font-size: 11px; font-style: normal; font-variant-ligatures: normal; font-variant-caps: normal; font-weight: 400; letter-spacing: normal; orphans: 2; text-align: center; text-indent: 0px; text-transform: none; widows: 2; word-spacing: 0px; -webkit-text-stroke-width: 0px; background-color: rgb(255, 255, 255); text-decoration-thickness: initial; text-decoration-style: initial; text-decoration-color: initial; float: none; display: inline !important;&quot;&gt;(1, 1)&lt;/span&gt;" style="text;whiteSpace=wrap;html=1;fontSize=11;" parent="1" vertex="1">
                    <mxGeometry x="-3114.9" y="-1322" width="30" height="20" as="geometry"/>
                </mxCell>
            </root>
        </mxGraphModel>
    </diagram>
</mxfile>